# xmcd
#
# Track frame offsets:
#	150
#	13443
#	28428
#	46124
#	61770
#	80604
#	87974
#	96793
#	117413
#	128231
#	143749
#	158304
#	172218
#	186263
#	199234
#
# Disc length: 2872 seconds
#
# Revision: 1
# Processed by: cddbd v1.5.1PL2 Copyright (c) Steve Scherf et al.
# Submitted via: audiograbber 1.83.01
#
DISCID=cf0b360f
DTITLE=Bill Johnson - Work Songs
DYEAR=2006
DGENRE=Blues
TTITLE0=Preacher Blues
TTITLE1=Poor Boy (Traditional)
TTITLE2=Undecided Blues
TTITLE3=Crawling Back To You
TTITLE4=Work Song
TTITLE5=Vigilante Man
TTITLE6=Home Loan Blues
TTITLE7=Pallet On The Floor
TTITLE8=Everything Will Be Alright
TTITLE9=Let's Get Drunk Again
TTITLE10=While You Were Sleeping
TTITLE11=Pork Salad Annie
TTITLE12=San Francisco Bay Blues
TTITLE13=Cross Road Blues
TTITLE14=For JT
EXTD=Canadain Blues Musician Bill Johnson performing a variety Classic Blues so
EXTD=ngs from such artists as Son House and Robert Johnson, along with a number
EXTD=of original tracks written by Bill in the vein of traditional Afro-Americ
EXTD=an Work Songs (or "Field Hollers.)"  Recorded at Canadian Concept Studio's
EXTD=Nov 2005.
EXTT0=
EXTT1=
EXTT2=Bill Johnson
EXTT3=Bill Johnson
EXTT4=Bill Johnson
EXTT5=
EXTT6=Bill Johnson
EXTT7=
EXTT8=Bill Johnson
EXTT9=
EXTT10=Bill Johnson
EXTT11=
EXTT12=
EXTT13=
EXTT14=Bill Johnson
PLAYORDER=
